<svg width="189" height="48" viewBox="0 0 189 48" fill="none" xmlns="http://www.w3.org/2000/svg">
<path d="M42.584 12.76C43.5653 12.76 44.4187 13.144 45.144 13.912C45.8693 14.6373 46.232 15.576 46.232 16.728C46.232 17.0267 46.2107 17.304 46.168 17.56C46.1253 17.7733 46.0613 17.9867 45.976 18.2L36.184 44.568C35.8853 45.4213 35.352 46.0827 34.584 46.552C33.816 46.9787 33.0053 47.128 32.152 47C30.7013 46.9147 29.6133 46.104 28.888 44.568L22.552 26.328L24.216 26.392L18.264 44.568C17.5387 46.104 16.4507 46.9147 15 47C14.1893 47.128 13.3787 46.9787 12.568 46.552C11.8 46.0827 11.2667 45.4213 10.968 44.568L1.176 18.2C1.00533 17.7307 0.92 17.24 0.92 16.728C0.92 15.704 1.26133 14.7867 1.944 13.976C2.62667 13.1653 3.56533 12.76 4.76 12.76C5.57067 12.76 6.296 12.952 6.936 13.336C7.576 13.72 8.024 14.3387 8.28 15.192L16.024 36.184L14.424 36.056L20.248 20.248C20.9307 18.6693 22.104 17.88 23.768 17.88C24.7067 17.88 25.4107 18.0933 25.88 18.52C26.392 18.904 26.7973 19.48 27.096 20.248L32.92 36.056L31 36.312L38.872 15.192C39.384 13.5707 40.6213 12.76 42.584 12.76ZM153.392 43.096C153.392 44.2053 153.029 45.144 152.304 45.912C151.579 46.6373 150.661 47 149.552 47C148.443 47 147.525 46.6373 146.8 45.912C146.075 45.144 145.712 44.2053 145.712 43.096V16.664C145.712 15.5547 146.075 14.6373 146.8 13.912C147.525 13.144 148.443 12.76 149.552 12.76C150.661 12.76 151.579 13.144 152.304 13.912C153.029 14.6373 153.392 15.5547 153.392 16.664V43.096ZM149.488 8.6C148.037 8.6 147.013 8.36533 146.416 7.896C145.819 7.42666 145.52 6.59466 145.52 5.4V4.184C145.52 2.94667 145.84 2.11467 146.48 1.688C147.163 1.21866 148.187 0.983997 149.552 0.983997C151.045 0.983997 152.091 1.21866 152.688 1.688C153.285 2.15733 153.584 2.98933 153.584 4.184V5.4C153.584 6.63733 153.264 7.49066 152.624 7.96C151.984 8.38667 150.939 8.6 149.488 8.6ZM176.517 12.12C178.949 12.12 181.061 12.376 182.853 12.888C184.688 13.4 186.096 14.1253 187.077 15.064C188.101 15.96 188.613 17.048 188.613 18.328C188.613 19.1813 188.357 19.992 187.845 20.76C187.333 21.4853 186.586 21.848 185.605 21.848C184.922 21.848 184.346 21.7627 183.877 21.592C183.45 21.3787 183.066 21.1227 182.725 20.824C182.384 20.5253 181.978 20.248 181.509 19.992C181.082 19.736 180.421 19.544 179.525 19.416C178.672 19.2453 178.032 19.16 177.605 19.16C175.429 19.16 173.573 19.6293 172.037 20.568C170.544 21.5067 169.392 22.7867 168.581 24.408C167.77 25.9867 167.365 27.8213 167.365 29.912C167.365 31.96 167.77 33.7947 168.581 35.416C169.434 36.9947 170.586 38.2533 172.037 39.192C173.53 40.1307 175.237 40.6 177.157 40.6C178.224 40.6 179.141 40.536 179.909 40.408C180.677 40.28 181.317 40.088 181.829 39.832C182.426 39.4907 182.96 39.128 183.429 38.744C183.898 38.36 184.602 38.168 185.541 38.168C186.65 38.168 187.504 38.5307 188.101 39.256C188.698 39.9387 188.997 40.792 188.997 41.816C188.997 42.8827 188.4 43.864 187.205 44.76C186.01 45.6133 184.432 46.3173 182.469 46.872C180.549 47.384 178.458 47.64 176.197 47.64C172.826 47.64 169.904 46.872 167.429 45.336C164.954 43.7573 163.034 41.624 161.669 38.936C160.346 36.248 159.685 33.24 159.685 29.912C159.685 26.4133 160.389 23.3413 161.797 20.696C163.248 18.008 165.232 15.9173 167.749 14.424C170.309 12.888 173.232 12.12 176.517 12.12Z" fill="#8B5CF6"/>
<path d="M85.501 29.912C85.501 33.4107 84.7117 36.504 83.133 39.192C81.597 41.8373 79.5063 43.9067 76.861 45.4C74.2583 46.8933 71.3357 47.64 68.093 47.64C64.8503 47.64 61.9063 46.8933 59.261 45.4C56.6583 43.9067 54.5677 41.8373 52.989 39.192C51.453 36.504 50.685 33.4107 50.685 29.912C50.685 26.4133 51.453 23.3413 52.989 20.696C54.5677 18.008 56.6583 15.9173 59.261 14.424C61.9063 12.888 64.8503 12.12 68.093 12.12C71.3357 12.12 74.2583 12.888 76.861 14.424C79.5063 15.9173 81.597 18.008 83.133 20.696C84.7117 23.3413 85.501 26.4133 85.501 29.912ZM77.821 29.912C77.821 27.736 77.373 25.8587 76.477 24.28C75.6237 22.6587 74.4503 21.4 72.957 20.504C71.5063 19.608 69.885 19.16 68.093 19.16C66.301 19.16 64.6583 19.608 63.165 20.504C61.7143 21.4 60.541 22.6587 59.645 24.28C58.7917 25.8587 58.365 27.736 58.365 29.912C58.365 32.0453 58.7917 33.9227 59.645 35.544C60.541 37.1227 61.7143 38.36 63.165 39.256C64.6583 40.152 66.301 40.6 68.093 40.6C69.885 40.6 71.5063 40.152 72.957 39.256C74.4503 38.36 75.6237 37.1227 76.477 35.544C77.373 33.9227 77.821 32.0453 77.821 29.912Z" fill="#EAB308"/>
<path d="M96.0625 47C94.9532 47 94.0358 46.6373 93.3105 45.912C92.5852 45.144 92.2225 44.2053 92.2225 43.096V16.664C92.2225 15.5547 92.5852 14.6373 93.3105 13.912C94.0358 13.144 94.9532 12.76 96.0625 12.76C97.1718 12.76 98.0892 13.144 98.8145 13.912C99.5398 14.6373 99.9025 15.5547 99.9025 16.664V22.68L99.4545 18.392C99.9238 17.368 100.521 16.472 101.247 15.704C102.015 14.8933 102.868 14.232 103.807 13.72C104.745 13.1653 105.748 12.76 106.815 12.504C107.881 12.248 108.948 12.12 110.015 12.12C111.295 12.12 112.361 12.4827 113.215 13.208C114.111 13.9333 114.559 14.7867 114.559 15.768C114.559 17.176 114.196 18.2 113.471 18.84C112.745 19.4373 111.956 19.736 111.103 19.736C110.292 19.736 109.545 19.5867 108.863 19.288C108.223 18.9893 107.476 18.84 106.623 18.84C105.855 18.84 105.065 19.032 104.255 19.416C103.487 19.7573 102.761 20.312 102.079 21.08C101.439 21.848 100.905 22.808 100.479 23.96C100.095 25.0693 99.9025 26.392 99.9025 27.928V43.096C99.9025 44.2053 99.5398 45.144 98.8145 45.912C98.0892 46.6373 97.1718 47 96.0625 47Z" fill="#94A3B8"/>
<path d="M120.357 13.4H135.525C136.549 13.4 137.402 13.7413 138.085 14.424C138.767 15.1067 139.109 15.96 139.109 16.984C139.109 17.9653 138.767 18.7973 138.085 19.48C137.402 20.12 136.549 20.44 135.525 20.44H120.357C119.333 20.44 118.479 20.0987 117.797 19.416C117.114 18.7333 116.773 17.88 116.773 16.856C116.773 15.8747 117.114 15.064 117.797 14.424C118.479 13.7413 119.333 13.4 120.357 13.4ZM127.205 5.4C128.314 5.4 129.21 5.784 129.893 6.552C130.618 7.27733 130.981 8.19467 130.981 9.304V37.784C130.981 38.3813 131.087 38.872 131.301 39.256C131.557 39.64 131.877 39.9173 132.26 40.088C132.687 40.2587 133.135 40.344 133.605 40.344C134.117 40.344 134.586 40.2587 135.013 40.088C135.439 39.8747 135.93 39.768 136.485 39.768C137.082 39.768 137.615 40.0453 138.085 40.6C138.597 41.1547 138.853 41.9227 138.853 42.904C138.853 44.0987 138.191 45.08 136.869 45.848C135.589 46.616 134.202 47 132.708 47C131.813 47 130.81 46.936 129.701 46.808C128.634 46.6373 127.61 46.2747 126.629 45.72C125.69 45.1227 124.9 44.2267 124.26 43.032C123.621 41.8373 123.301 40.1947 123.301 38.104V9.304C123.301 8.19467 123.663 7.27733 124.389 6.552C125.157 5.784 126.095 5.4 127.205 5.4Z" fill="#10B981"/>
<path d="M45.144 13.912L39.3279 19.405L39.4063 19.4881L39.4871 19.5689L45.144 13.912ZM46.168 17.56L54.0127 19.1289L54.038 19.0024L54.0592 18.8752L46.168 17.56ZM45.976 18.2L38.5482 15.2288L38.5112 15.3214L38.4764 15.415L45.976 18.2ZM36.184 44.568L28.6844 41.783L28.6581 41.8538L28.6331 41.9252L36.184 44.568ZM34.584 46.552L38.4691 53.5453L38.6141 53.4647L38.7556 53.3783L34.584 46.552ZM32.152 47L33.3387 39.0885L32.9819 39.035L32.6218 39.0138L32.152 47ZM28.888 44.568L21.331 47.1931L21.4713 47.5972L21.654 47.9841L28.888 44.568ZM22.552 26.328L22.8595 18.3339L11.1497 17.8835L14.995 28.9531L22.552 26.328ZM24.216 26.392L31.8187 28.8816L35.1184 18.8054L24.5235 18.3979L24.216 26.392ZM18.264 44.568L25.498 47.9841L25.7113 47.5324L25.8667 47.0576L18.264 44.568ZM15 47L14.5302 39.0138L14.1392 39.0368L13.7523 39.0979L15 47ZM12.568 46.552L8.3964 53.3783L8.61516 53.5119L8.84203 53.6313L12.568 46.552ZM10.968 44.568L18.5189 41.9252L18.4939 41.8538L18.4676 41.783L10.968 44.568ZM1.176 18.2L-6.34235 20.9339L-6.33305 20.9595L-6.32357 20.985L1.176 18.2ZM1.944 13.976L-4.17529 8.82291L-4.17529 8.82292L1.944 13.976ZM6.936 13.336L2.82003 20.1959H2.82003L6.936 13.336ZM8.28 15.192L0.61739 17.4908L0.688626 17.7282L0.774428 17.9608L8.28 15.192ZM16.024 36.184L15.386 44.1585L27.861 45.1565L23.5296 33.4152L16.024 36.184ZM14.424 36.056L6.91726 33.2904L3.27029 43.1893L13.786 44.0305L14.424 36.056ZM20.248 20.248L12.9051 17.0727L12.8176 17.2753L12.7413 17.4824L20.248 20.248ZM25.88 18.52L20.4986 24.4395L20.778 24.6935L21.08 24.92L25.88 18.52ZM27.096 20.248L34.6027 17.4824L34.578 17.4152L34.552 17.3484L27.096 20.248ZM32.92 36.056L33.9773 43.9858L43.8807 42.6654L40.4267 33.2904L32.92 36.056ZM31 36.312L23.5038 33.518L18.8504 46.0027L32.0573 44.2418L31 36.312ZM38.872 15.192L46.3682 17.986L46.4393 17.7952L46.5007 17.6011L38.872 15.192ZM42.584 20.76C41.9992 20.76 41.3327 20.6384 40.6771 20.3434C40.0343 20.0541 39.5914 19.684 39.3279 19.405L50.9601 8.41902C48.8524 6.18734 45.9473 4.76 42.584 4.76V20.76ZM39.4871 19.5689C39.0769 19.1586 38.7261 18.6347 38.4976 18.0432C38.276 17.4697 38.232 16.9968 38.232 16.728H54.232C54.232 13.7394 53.2167 10.671 50.8009 8.25514L39.4871 19.5689ZM38.232 16.728C38.232 16.6503 38.2372 16.4826 38.2768 16.2448L54.0592 18.8752C54.1841 18.1254 54.232 17.403 54.232 16.728H38.232ZM38.3234 15.9911C38.3817 15.6993 38.4622 15.4439 38.5482 15.2288L53.4038 21.1712C53.6605 20.5294 53.869 19.8474 54.0127 19.1289L38.3234 15.9911ZM38.4764 15.415L28.6844 41.783L43.6836 47.353L53.4756 20.985L38.4764 15.415ZM28.6331 41.9252C28.7663 41.5447 28.9896 41.1074 29.3327 40.682C29.6761 40.2561 30.0596 39.9414 30.4124 39.7257L38.7556 53.3783C41.1067 51.9415 42.8293 49.7982 43.7349 47.2108L28.6331 41.9252ZM30.6989 39.5587C31.0238 39.3782 31.4474 39.2091 31.9507 39.1164C32.4557 39.0233 32.9317 39.0274 33.3387 39.0885L30.9653 54.9115C33.5982 55.3064 36.1884 54.8123 38.4691 53.5453L30.6989 39.5587ZM32.6218 39.0138C33.3397 39.056 34.2293 39.3179 35.0279 39.9129C35.7677 40.4642 36.0631 41.0273 36.122 41.1519L21.654 47.9841C23.3748 51.628 26.7616 54.6967 31.6822 54.9862L32.6218 39.0138ZM36.445 41.9429L30.109 23.7029L14.995 28.9531L21.331 47.1931L36.445 41.9429ZM22.2445 34.3221L23.9085 34.3861L24.5235 18.3979L22.8595 18.3339L22.2445 34.3221ZM16.6133 23.9024L10.6613 42.0784L25.8667 47.0576L31.8187 28.8816L16.6133 23.9024ZM11.03 41.1519C11.0889 41.0273 11.3843 40.4642 12.1242 39.9129C12.9227 39.3179 13.8123 39.056 14.5302 39.0138L15.4698 54.9862C20.3904 54.6967 23.7772 51.628 25.498 47.9841L11.03 41.1519ZM13.7523 39.0979C14.2454 39.02 14.752 39.0277 15.2333 39.1164C15.7053 39.2033 16.0633 39.3512 16.294 39.4727L8.84203 53.6313C10.9923 54.7631 13.537 55.3301 16.2477 54.9021L13.7523 39.0979ZM16.7396 39.7257C17.0924 39.9414 17.4759 40.2561 17.8193 40.682C18.1624 41.1074 18.3857 41.5447 18.5189 41.9252L3.41713 47.2108C4.32274 49.7982 6.04527 51.9415 8.3964 53.3783L16.7396 39.7257ZM18.4676 41.783L8.67557 15.415L-6.32357 20.985L3.46843 47.353L18.4676 41.783ZM8.69435 15.4661C8.8504 15.8952 8.92 16.3315 8.92 16.728H-7.08C-7.08 18.1485 -6.83973 19.5661 -6.34235 20.9339L8.69435 15.4661ZM8.92 16.728C8.92 17.1239 8.85044 17.5871 8.67377 18.0619C8.49852 18.5329 8.26468 18.8899 8.06329 19.1291L-4.17529 8.82292C-6.0263 11.021 -7.08 13.7477 -7.08 16.728H8.92ZM8.06329 19.1291C7.63544 19.6372 7.04363 20.101 6.33149 20.4085C5.64511 20.7049 5.07182 20.76 4.76 20.76V4.76C1.54255 4.76 -1.76809 5.96436 -4.17529 8.82291L8.06329 19.1291ZM4.76 20.76C4.24994 20.76 3.52968 20.6217 2.82003 20.1959L11.052 6.47606C9.06232 5.28227 6.8914 4.76 4.76 4.76V20.76ZM2.82003 20.1959C2.19194 19.8191 1.6667 19.3245 1.27246 18.7801C0.891553 18.2541 0.704966 17.7827 0.61739 17.4908L15.9426 12.8932C15.2311 10.5216 13.7214 8.07774 11.052 6.47606L2.82003 20.1959ZM0.774428 17.9608L8.51843 38.9528L23.5296 33.4152L15.7856 12.4232L0.774428 17.9608ZM16.662 28.2095L15.062 28.0815L13.786 44.0305L15.386 44.1585L16.662 28.2095ZM21.9307 38.8216L27.7547 23.0136L12.7413 17.4824L6.91726 33.2904L21.9307 38.8216ZM27.5909 23.4233C27.4566 23.7337 27.0405 24.4807 26.1054 25.1098C25.1524 25.7509 24.2395 25.88 23.768 25.88V9.88C21.6325 9.88 19.301 10.4038 17.1746 11.8342C15.0662 13.2526 13.7221 15.1836 12.9051 17.0727L27.5909 23.4233ZM23.768 25.88C23.6521 25.88 22.0722 25.87 20.4986 24.4395L31.2614 12.6005C28.7492 10.3167 25.7612 9.88 23.768 9.88V25.88ZM21.08 24.92C20.0989 24.1842 19.7292 23.3772 19.64 23.1476L34.552 17.3484C33.8654 15.5828 32.6851 13.6238 30.68 12.12L21.08 24.92ZM19.5893 23.0136L25.4133 38.8216L40.4267 33.2904L34.6027 17.4824L19.5893 23.0136ZM31.8627 28.1262L29.9427 28.3822L32.0573 44.2418L33.9773 43.9858L31.8627 28.1262ZM38.4962 39.106L46.3682 17.986L31.3758 12.398L23.5038 33.518L38.4962 39.106ZM46.5007 17.6011C46.2886 18.2725 45.7189 19.3058 44.5682 20.0597C43.5215 20.7455 42.6614 20.76 42.584 20.76V4.76C40.5439 4.76 38.0839 5.17984 35.7998 6.67631C33.4118 8.24088 31.9674 10.4902 31.2433 12.7829L46.5007 17.6011ZM83.133 39.192L76.2347 35.1406L76.2247 35.1577L76.2147 35.1749L83.133 39.192ZM76.861 45.4L72.9282 38.4334L72.9039 38.4472L72.8796 38.4611L76.861 45.4ZM59.261 45.4L55.2796 52.3389L55.3039 52.3529L55.3282 52.3666L59.261 45.4ZM52.989 39.192L46.0431 43.1611L46.0806 43.2267L46.1193 43.2917L52.989 39.192ZM52.989 20.696L46.0907 16.6446L46.0807 16.6617L46.0707 16.6789L52.989 20.696ZM59.261 14.424L63.2424 21.3629L63.2602 21.3527L63.2781 21.3423L59.261 14.424ZM76.861 14.424L72.795 21.3137L72.8612 21.3528L72.9283 21.3906L76.861 14.424ZM83.133 20.696L76.1871 24.6651L76.2246 24.7307L76.2633 24.7957L83.133 20.696ZM76.477 24.28L69.3977 28.006L69.4568 28.1184L69.5195 28.2288L76.477 24.28ZM72.957 20.504L68.7531 27.3104L68.7969 27.3374L68.841 27.3639L72.957 20.504ZM63.165 20.504L59.049 13.6441L59.0049 13.6706L58.9611 13.6976L63.165 20.504ZM59.645 24.28L52.6431 20.4105L52.6251 20.4431L52.6073 20.4759L59.645 24.28ZM59.645 35.544L52.5657 39.27L52.6248 39.3824L52.6875 39.4928L59.645 35.544ZM63.165 39.256L58.9611 46.0624L59.0049 46.0894L59.049 46.1159L63.165 39.256ZM72.957 39.256L68.841 32.3961L68.7969 32.4226L68.7531 32.4496L72.957 39.256ZM76.477 35.544L69.4751 31.6745L69.4571 31.7071L69.4393 31.7399L76.477 35.544ZM77.501 29.912C77.501 32.1645 77.0068 33.826 76.2347 35.1406L90.0313 43.2434C92.4165 39.182 93.501 34.6569 93.501 29.912H77.501ZM76.2147 35.1749C75.3884 36.598 74.3246 37.6452 72.9282 38.4334L80.7938 52.3666C84.6881 50.1682 87.8056 47.0767 90.0513 43.2091L76.2147 35.1749ZM72.8796 38.4611C71.5857 39.2035 70.0549 39.64 68.093 39.64V55.64C72.6164 55.64 76.931 54.5832 80.8424 52.3389L72.8796 38.4611ZM68.093 39.64C66.1323 39.64 64.5581 39.2036 63.1938 38.4334L55.3282 52.3666C59.2546 54.5831 63.5684 55.64 68.093 55.64V39.64ZM63.2424 38.4611C61.8627 37.6695 60.7536 36.5919 59.8587 35.0923L46.1193 43.2917C48.3817 47.0827 51.4539 50.1438 55.2796 52.3389L63.2424 38.4611ZM59.9349 35.2229C59.1758 33.8943 58.685 32.2029 58.685 29.912H42.685C42.685 34.6184 43.7302 39.1137 46.0431 43.1611L59.9349 35.2229ZM58.685 29.912C58.685 27.6182 59.1766 25.9715 59.9073 24.7131L46.0707 16.6789C43.7294 20.7111 42.685 25.2085 42.685 29.912H58.685ZM59.8873 24.7474C60.7899 23.2106 61.8945 22.1363 63.2424 21.3629L55.2796 7.48506C51.4221 9.69839 48.3455 12.8054 46.0907 16.6446L59.8873 24.7474ZM63.2781 21.3423C64.6293 20.5577 66.1733 20.12 68.093 20.12V4.12C63.5273 4.12 59.1834 5.21827 55.2439 7.50569L63.2781 21.3423ZM68.093 20.12C70.0136 20.12 71.514 20.5577 72.795 21.3137L80.927 7.53434C77.0027 5.21835 72.6577 4.12 68.093 4.12V20.12ZM72.9283 21.3906C74.2922 22.1606 75.3524 23.2045 76.1871 24.6651L90.0789 16.7269C87.8416 12.8115 84.7204 9.67408 80.7938 7.4574L72.9283 21.3906ZM76.2633 24.7957C77.0061 26.0403 77.501 27.6569 77.501 29.912H93.501C93.501 25.1698 92.4173 20.6424 90.0027 16.5963L76.2633 24.7957ZM85.821 29.912C85.821 26.6268 85.1378 23.3323 83.4345 20.3312L69.5195 28.2288C69.6082 28.385 69.821 28.8452 69.821 29.912H85.821ZM83.5563 20.554C82.0579 17.7069 79.889 15.3337 77.073 13.6441L68.841 27.3639C69.0117 27.4663 69.1895 27.6104 69.3977 28.006L83.5563 20.554ZM77.1609 13.6976C74.3811 11.9807 71.2907 11.16 68.093 11.16V27.16C68.4793 27.16 68.6315 27.2353 68.7531 27.3104L77.1609 13.6976ZM68.093 11.16C64.8952 11.16 61.823 11.9797 59.049 13.6441L67.281 27.3639C67.4937 27.2363 67.7068 27.16 68.093 27.16V11.16ZM58.9611 13.6976C56.2412 15.3776 54.1448 17.693 52.6431 20.4105L66.6469 28.1495C66.9372 27.6243 67.1875 27.4224 67.3689 27.3104L58.9611 13.6976ZM52.6073 20.4759C51.0014 23.4469 50.365 26.6879 50.365 29.912H66.365C66.365 28.7841 66.5819 28.2704 66.6827 28.0841L52.6073 20.4759ZM50.365 29.912C50.365 33.1297 51.0153 36.3243 52.5657 39.27L66.7243 31.818C66.5681 31.5211 66.365 30.961 66.365 29.912H50.365ZM52.6875 39.4928C54.2026 42.1623 56.2933 44.4146 58.9611 46.0624L67.3689 32.4496C67.1354 32.3054 66.8794 32.0831 66.6025 31.5952L52.6875 39.4928ZM59.049 46.1159C61.823 47.7803 64.8952 48.6 68.093 48.6V32.6C67.7068 32.6 67.4937 32.5237 67.281 32.3961L59.049 46.1159ZM68.093 48.6C71.2907 48.6 74.3811 47.7793 77.1609 46.0624L68.7531 32.4496C68.6315 32.5247 68.4793 32.6 68.093 32.6V48.6ZM77.073 46.1159C79.8353 44.4586 82.0008 42.1487 83.5147 39.3481L69.4393 31.7399C69.2465 32.0966 69.0654 32.2614 68.841 32.3961L77.073 46.1159ZM83.4789 39.4135C85.123 36.4385 85.821 33.1916 85.821 29.912H69.821C69.821 30.8991 69.623 31.4069 69.4751 31.6745L83.4789 39.4135ZM93.3105 45.912L87.4944 51.405L87.5729 51.4881L87.6536 51.5689L93.3105 45.912ZM93.3105 13.912L98.9674 19.5688L99.0481 19.4881L99.1266 19.405L93.3105 13.912ZM98.8145 13.912L92.9984 19.405L93.0769 19.4881L93.1576 19.5688L98.8145 13.912ZM99.9025 22.68L91.9458 23.5113L107.902 22.68H99.9025ZM99.4545 18.392L92.182 15.0588L91.2705 17.0475L91.4978 19.2233L99.4545 18.392ZM101.246 15.704L95.4389 10.202L95.4304 10.211L101.246 15.704ZM103.807 13.72L107.637 20.7432L107.758 20.6773L107.876 20.6074L103.807 13.72ZM113.215 13.208L108.033 19.3035L108.106 19.3656L108.181 19.426L113.215 13.208ZM113.471 18.84L118.556 25.0154L118.661 24.9288L118.763 24.8387L113.471 18.84ZM108.863 19.288L105.479 26.5375L105.567 26.5784L105.656 26.6173L108.863 19.288ZM104.255 19.416L107.504 26.7265L107.592 26.6873L107.679 26.6459L104.255 19.416ZM102.078 21.08L96.0992 15.7651L96.0144 15.8605L95.9327 15.9585L102.078 21.08ZM100.479 23.96L92.9765 21.1815L92.9467 21.262L92.9186 21.3431L100.479 23.96ZM98.8145 45.912L104.471 51.5689L104.552 51.4881L104.631 51.405L98.8145 45.912ZM96.0625 39C96.3899 39 96.8965 39.0561 97.4838 39.2883C98.0834 39.5254 98.5878 39.8756 98.9674 40.2551L87.6536 51.5689C90.009 53.9242 93.0222 55 96.0625 55V39ZM99.1266 40.419C99.4408 40.7517 99.7455 41.2018 99.9569 41.7488C100.166 42.2889 100.223 42.7656 100.223 43.096H84.2225C84.2225 46.135 85.2908 49.0718 87.4944 51.405L99.1266 40.419ZM100.223 43.096V16.664H84.2225V43.096H100.223ZM100.223 16.664C100.223 16.9914 100.166 17.498 99.9342 18.0853C99.6971 18.6849 99.3469 19.1893 98.9674 19.5688L87.6536 8.25515C85.2983 10.6105 84.2225 13.6237 84.2225 16.664H100.223ZM99.1266 19.405C98.7706 19.7819 98.2671 20.1615 97.6316 20.4275C97.0048 20.6899 96.4459 20.76 96.0625 20.76V4.76C92.8761 4.76 89.814 5.96292 87.4944 8.41901L99.1266 19.405ZM96.0625 20.76C95.6791 20.76 95.1202 20.6899 94.4934 20.4275C93.8579 20.1615 93.3544 19.7819 92.9984 19.405L104.631 8.41901C102.311 5.96292 99.2489 4.76 96.0625 4.76V20.76ZM93.1576 19.5688C92.7781 19.1893 92.4279 18.6849 92.1908 18.0853C91.9586 17.498 91.9025 16.9914 91.9025 16.664H107.902C107.902 13.6237 106.827 10.6105 104.471 8.25515L93.1576 19.5688ZM91.9025 16.664V22.68H107.902V16.664H91.9025ZM107.859 21.8487L107.411 17.5607L91.4978 19.2233L91.9458 23.5113L107.859 21.8487ZM106.727 21.7252C106.856 21.443 106.976 21.2885 107.063 21.197L95.4304 10.211C94.0662 11.6555 92.9913 13.293 92.182 15.0588L106.727 21.7252ZM107.054 21.206C107.273 20.9754 107.465 20.837 107.637 20.7432L99.9757 6.69684C98.2705 7.62696 96.7565 8.81123 95.4389 10.202L107.054 21.206ZM107.876 20.6074C108.125 20.4605 108.385 20.3544 108.681 20.2831L104.948 4.7249C103.111 5.16564 101.365 5.87017 99.7367 6.83259L107.876 20.6074ZM108.681 20.2831C109.154 20.1697 109.594 20.12 110.015 20.12V4.12C108.301 4.12 106.608 4.32632 104.948 4.7249L108.681 20.2831ZM110.015 20.12C109.896 20.12 109.6 20.1023 109.199 19.9662C108.784 19.8251 108.379 19.5974 108.033 19.3035L118.396 7.11249C115.891 4.98335 112.905 4.12 110.015 4.12V20.12ZM108.181 19.426C107.946 19.2355 107.51 18.8175 107.139 18.1107C106.75 17.3688 106.559 16.5483 106.559 15.768H122.559C122.559 11.9381 120.654 8.93805 118.248 6.99003L108.181 19.426ZM106.559 15.768C106.559 15.9474 106.517 14.3061 108.178 12.8413L118.763 24.8387C121.874 22.0939 122.559 18.4046 122.559 15.768H106.559ZM108.385 12.6646C108.621 12.4698 108.993 12.2228 109.503 12.0297C110.024 11.8329 110.573 11.736 111.103 11.736V27.736C114.002 27.736 116.553 26.665 118.556 25.0154L108.385 12.6646ZM111.103 11.736C111.297 11.736 111.654 11.7774 112.069 11.9587L105.656 26.6173C107.436 27.396 109.286 27.736 111.103 27.736V11.736ZM112.246 12.0385C110.349 11.1534 108.406 10.84 106.622 10.84V26.84C106.546 26.84 106.096 26.8252 105.479 26.5375L112.246 12.0385ZM106.622 10.84C104.487 10.84 102.532 11.3797 100.83 12.1861L107.679 26.6459C107.598 26.6843 107.222 26.84 106.622 26.84V10.84ZM101.005 12.1055C98.9904 13.0011 97.3745 14.3304 96.0992 15.7651L108.058 26.3949C108.148 26.2936 107.983 26.5136 107.504 26.7265L101.005 12.1055ZM95.9327 15.9585C94.595 17.5638 93.6492 19.3652 92.9765 21.1815L107.98 26.7385C108.161 26.2508 108.282 26.1322 108.224 26.2015L95.9327 15.9585ZM92.9186 21.3431C92.1691 23.5085 91.9025 25.7605 91.9025 27.928H107.902C107.902 27.0235 108.02 26.6302 108.038 26.5769L92.9186 21.3431ZM91.9025 27.928V43.096H107.902V27.928H91.9025ZM91.9025 43.096C91.9025 42.7656 91.9594 42.2889 92.1681 41.7488C92.3795 41.2018 92.6842 40.7517 92.9984 40.419L104.631 51.405C106.834 49.0718 107.902 46.135 107.902 43.096H91.9025ZM93.1576 40.2551C93.5372 39.8756 94.0416 39.5254 94.6412 39.2883C95.2285 39.0561 95.7351 39 96.0625 39V55C99.1028 55 102.116 53.9242 104.471 51.5689L93.1576 40.2551ZM138.085 14.424L132.428 20.0808L132.428 20.0809L138.085 14.424ZM138.085 19.48L143.556 25.3163L143.65 25.2281L143.741 25.1369L138.085 19.48ZM117.797 14.424L123.268 20.2603L123.362 20.1721L123.453 20.0808L117.797 14.424ZM129.893 6.552L123.913 11.8669L124.069 12.0426L124.236 12.2089L129.893 6.552ZM131.301 39.256L124.307 43.1411L124.464 43.4242L124.644 43.6936L131.301 39.256ZM132.26 40.088L129.011 47.3985L129.149 47.4598L129.289 47.5158L132.26 40.088ZM135.012 40.088L137.984 47.5158L138.293 47.3922L138.59 47.2434L135.012 40.088ZM138.085 40.6L131.977 45.7675L132.089 45.8994L132.206 46.0262L138.085 40.6ZM136.868 45.848L132.851 38.9297L132.802 38.9585L132.753 38.9881L136.868 45.848ZM129.701 46.808L128.437 54.7075L128.61 54.7352L128.784 54.7553L129.701 46.808ZM126.629 45.72L122.333 52.4693L122.51 52.5816L122.692 52.6845L126.629 45.72ZM124.26 43.032L117.209 46.8098L117.209 46.8098L124.26 43.032ZM124.389 6.552L118.732 0.895144V0.895147L124.389 6.552ZM120.356 21.4H135.525V5.4H120.356V21.4ZM135.525 21.4C135.135 21.4 134.582 21.332 133.961 21.0838C133.332 20.8319 132.813 20.4662 132.428 20.0808L143.741 8.76715C141.46 6.48612 138.527 5.4 135.525 5.4V21.4ZM132.428 20.0809C132.042 19.6955 131.677 19.1768 131.425 18.5471C131.177 17.9268 131.109 17.3737 131.109 16.984H147.109C147.109 13.9811 146.022 11.0482 143.741 8.76714L132.428 20.0809ZM131.109 16.984C131.109 16.5287 131.192 15.9397 131.451 15.3075C131.712 14.6728 132.075 14.1754 132.428 13.8231L143.741 25.1369C145.952 22.9264 147.109 20.0479 147.109 16.984H131.109ZM132.613 13.6437C133.02 13.2618 133.536 12.9298 134.124 12.7094C134.699 12.4935 135.195 12.44 135.525 12.44V28.44C138.372 28.44 141.245 27.4829 143.556 25.3163L132.613 13.6437ZM135.525 12.44H120.356V28.44H135.525V12.44ZM120.356 12.44C120.746 12.44 121.299 12.508 121.92 12.7562C122.549 13.0081 123.068 13.3738 123.453 13.7591L112.14 25.0729C114.421 27.3539 117.354 28.44 120.356 28.44V12.44ZM123.453 13.7591C123.839 14.1445 124.204 14.6632 124.456 15.2929C124.704 15.9132 124.772 16.4663 124.772 16.856H108.772C108.772 19.8589 109.859 22.7918 112.14 25.0729L123.453 13.7591ZM124.772 16.856C124.772 17.3082 124.69 17.9314 124.402 18.6165C124.11 19.3101 123.692 19.8629 123.268 20.2603L112.325 8.5877C109.943 10.821 108.772 13.7845 108.772 16.856H124.772ZM123.453 20.0808C123.068 20.4662 122.549 20.8319 121.92 21.0838C121.299 21.332 120.746 21.4 120.356 21.4V5.4C117.354 5.4 114.421 6.48612 112.14 8.76715L123.453 20.0808ZM127.204 13.4C126.825 13.4 126.233 13.3309 125.557 13.0412C124.866 12.7449 124.31 12.3133 123.913 11.8669L135.872 1.23709C133.54 -1.38613 130.394 -2.6 127.204 -2.6V13.4ZM124.236 12.2089C123.856 11.8293 123.506 11.3249 123.269 10.7253C123.037 10.138 122.98 9.63142 122.98 9.304H138.98C138.98 6.26372 137.905 3.2505 135.549 0.895145L124.236 12.2089ZM122.98 9.304V37.784H138.98V9.304H122.98ZM122.98 37.784C122.98 39.2727 123.238 41.2174 124.307 43.1411L138.294 35.3709C138.936 36.5266 138.98 37.4899 138.98 37.784H122.98ZM124.644 43.6936C125.655 45.2102 127.108 46.5525 129.011 47.3985L135.51 32.7775C136.645 33.2822 137.458 34.0698 137.957 34.8184L124.644 43.6936ZM129.289 47.5158C130.681 48.0726 132.14 48.344 133.605 48.344V32.344C134.131 32.344 134.693 32.4447 135.232 32.6602L129.289 47.5158ZM133.605 48.344C135.018 48.344 136.51 48.1053 137.984 47.5158L132.041 32.6602C132.662 32.412 133.215 32.344 133.605 32.344V48.344ZM138.59 47.2434C137.738 47.6693 136.97 47.768 136.484 47.768V31.768C134.89 31.768 133.14 32.08 131.435 32.9326L138.59 47.2434ZM136.484 47.768C135.49 47.768 134.507 47.5239 133.642 47.0737C132.814 46.6433 132.278 46.1229 131.977 45.7675L144.192 35.4325C142.563 33.5072 139.941 31.768 136.484 31.768V47.768ZM132.206 46.0262C130.984 44.7024 130.853 43.3124 130.853 42.904H146.853C146.853 40.533 146.209 37.6069 143.963 35.1738L132.206 46.0262ZM130.853 42.904C130.853 41.9245 131.154 40.9089 131.722 40.0652C132.236 39.3036 132.762 38.9818 132.851 38.9297L140.886 52.7663C143.876 51.0297 146.853 47.7651 146.853 42.904H130.853ZM132.753 38.9881C132.74 38.9957 132.73 39.0007 132.725 39.0037C132.719 39.0067 132.716 39.0079 132.716 39.008C132.716 39.0081 132.717 39.0073 132.721 39.0061C132.724 39.0049 132.729 39.0035 132.733 39.0022C132.738 39.0008 132.743 38.9998 132.746 38.9991C132.75 38.9984 132.751 38.9981 132.751 38.9982C132.751 38.9982 132.748 38.9986 132.741 38.9991C132.734 38.9995 132.724 39 132.708 39V55C135.651 55 138.461 54.2223 140.984 52.7079L132.753 38.9881ZM132.708 39C132.183 39 131.493 38.9618 130.617 38.8607L128.784 54.7553C130.127 54.9102 131.442 55 132.708 55V39ZM130.964 38.9085C130.878 38.8946 130.755 38.8627 130.565 38.7555L122.692 52.6845C124.465 53.6866 126.39 54.3801 128.437 54.7075L130.964 38.9085ZM130.924 38.9707C131.134 39.1047 131.269 39.236 131.335 39.3118C131.398 39.3823 131.38 39.3809 131.312 39.2542L117.209 46.8098C118.357 48.9527 120.008 50.9896 122.333 52.4693L130.924 38.9707ZM131.312 39.2542C131.447 39.5048 131.434 39.5871 131.393 39.3743C131.352 39.1632 131.301 38.7568 131.301 38.104H115.3C115.3 40.8619 115.698 43.99 117.209 46.8098L131.312 39.2542ZM131.301 38.104V9.304H115.3V38.104H131.301ZM131.301 9.304C131.301 9.63142 131.244 10.138 131.012 10.7253C130.775 11.3249 130.425 11.8293 130.045 12.2088L118.732 0.895147C116.376 3.2505 115.3 6.26372 115.3 9.304H131.301ZM130.045 12.2089C129.732 12.5221 129.28 12.8542 128.698 13.0924C128.119 13.3291 127.591 13.4 127.204 13.4V-2.6C124.024 -2.6 121.036 -1.40872 118.732 0.895144L130.045 12.2089ZM152.304 45.912L157.961 51.5689L158.042 51.4881L158.12 51.405L152.304 45.912ZM146.8 45.912L140.984 51.405L141.062 51.4881L141.143 51.5689L146.8 45.912ZM146.8 13.912L152.457 19.5689L152.538 19.4881L152.616 19.405L146.8 13.912ZM152.304 13.912L146.488 19.405L146.566 19.4881L146.647 19.5688L152.304 13.912ZM146.416 7.896L141.473 14.1865L141.473 14.1866L146.416 7.896ZM146.48 1.688L150.918 8.3444L150.965 8.3127L151.012 8.28033L146.48 1.688ZM152.688 1.688L147.745 7.97854L147.745 7.97855L152.688 1.688ZM152.624 7.96L157.062 14.6164L157.211 14.5171L157.355 14.4112L152.624 7.96ZM145.392 43.096C145.392 42.7656 145.449 42.2889 145.658 41.7488C145.869 41.2018 146.174 40.7517 146.488 40.419L158.12 51.405C160.324 49.0718 161.392 46.135 161.392 43.096H145.392ZM146.647 40.2551C147.027 39.8756 147.531 39.5254 148.131 39.2883C148.718 39.0561 149.225 39 149.552 39V55C152.592 55 155.605 53.9242 157.961 51.5689L146.647 40.2551ZM149.552 39C149.879 39 150.386 39.0561 150.973 39.2883C151.573 39.5254 152.077 39.8756 152.457 40.2551L141.143 51.5689C143.499 53.9242 146.512 55 149.552 55V39ZM152.616 40.419C152.93 40.7517 153.235 41.2018 153.446 41.7488C153.655 42.2889 153.712 42.7656 153.712 43.096H137.712C137.712 46.135 138.78 49.0718 140.984 51.405L152.616 40.419ZM153.712 43.096V16.664H137.712V43.096H153.712ZM153.712 16.664C153.712 16.9914 153.656 17.498 153.424 18.0853C153.187 18.6849 152.836 19.1893 152.457 19.5689L141.143 8.25515C138.788 10.6105 137.712 13.6237 137.712 16.664H153.712ZM152.616 19.405C152.26 19.7819 151.757 20.1615 151.121 20.4275C150.494 20.6899 149.935 20.76 149.552 20.76V4.76C146.366 4.76 143.304 5.96292 140.984 8.41901L152.616 19.405ZM149.552 20.76C149.169 20.76 148.61 20.6899 147.983 20.4275C147.347 20.1615 146.844 19.7819 146.488 19.405L158.12 8.41901C155.8 5.96292 152.738 4.76 149.552 4.76V20.76ZM146.647 19.5688C146.268 19.1893 145.917 18.6849 145.68 18.0853C145.448 17.498 145.392 16.9914 145.392 16.664H161.392C161.392 13.6237 160.316 10.6105 157.961 8.25515L146.647 19.5688ZM145.392 16.664V43.096H161.392V16.664H145.392ZM149.488 0.599998C149.154 0.599998 149.171 0.569227 149.419 0.626139C149.643 0.6775 150.445 0.887711 151.359 1.60545L141.473 14.1866C144.286 16.3961 147.647 16.6 149.488 16.6V0.599998ZM151.359 1.60546C152.425 2.44331 153 3.45368 153.274 4.21708C153.524 4.91344 153.52 5.37859 153.52 5.4H137.52C137.52 7.63238 138.054 11.4999 141.473 14.1865L151.359 1.60546ZM153.52 5.4V4.184H137.52V5.4H153.52ZM153.52 4.184C153.52 4.19346 153.527 4.72282 153.227 5.50383C152.89 6.37889 152.184 7.49995 150.918 8.3444L142.042 -4.9684C138.074 -2.32314 137.52 1.94505 137.52 4.184H153.52ZM151.012 8.28033C150.333 8.74742 149.765 8.90786 149.547 8.95786C149.329 9.00789 149.302 8.984 149.552 8.984V-7.016C147.518 -7.016 144.576 -6.71151 141.948 -4.90433L151.012 8.28033ZM149.552 8.984C149.921 8.984 149.931 9.01686 149.704 8.96573C149.509 8.92204 148.687 8.71828 147.745 7.97854L157.631 -4.60254C154.792 -6.8331 151.37 -7.016 149.552 -7.016V8.984ZM147.745 7.97855C146.679 7.1407 146.104 6.13032 145.83 5.36692C145.58 4.67055 145.584 4.20541 145.584 4.184H161.584C161.584 1.95162 161.05 -1.91589 157.631 -4.60255L147.745 7.97855ZM145.584 4.184V5.4H161.584V4.184H145.584ZM145.584 5.4C145.584 5.38009 145.58 4.88852 145.853 4.15901C146.156 3.35088 146.78 2.32477 147.893 1.50877L157.355 14.4112C160.995 11.7415 161.584 7.72667 161.584 5.4H145.584ZM148.186 1.30359C148.991 0.767363 149.635 0.627186 149.76 0.601566C149.913 0.570307 149.854 0.599998 149.488 0.599998V16.6C151.329 16.6 154.381 16.4037 157.062 14.6164L148.186 1.30359ZM182.853 12.888L180.655 20.5802L180.679 20.587L180.703 20.5936L182.853 12.888ZM187.077 15.064L181.547 20.8451L181.675 20.9678L181.809 21.0846L187.077 15.064ZM187.845 20.76L194.381 25.3735L194.442 25.2863L194.501 25.1976L187.845 20.76ZM183.877 21.592L180.299 28.7474L180.711 28.9531L181.143 29.1103L183.877 21.592ZM182.725 20.824L177.457 26.8446L177.457 26.8446L182.725 20.824ZM181.509 19.992L177.393 26.8519L177.534 26.9365L177.678 27.0152L181.509 19.992ZM179.525 19.416L177.956 27.2606L178.174 27.3042L178.394 27.3356L179.525 19.416ZM172.037 20.568L167.865 13.7417L167.822 13.7681L167.78 13.7949L172.037 20.568ZM168.581 24.408L175.698 28.0624L175.717 28.0242L175.736 27.9857L168.581 24.408ZM168.581 35.416L161.426 38.9937L161.483 39.1079L161.543 39.2201L168.581 35.416ZM172.037 39.192L167.691 45.9086L167.735 45.9371L167.78 45.9651L172.037 39.192ZM179.909 40.408L178.594 32.5168L179.909 40.408ZM181.829 39.832L185.407 46.9874L185.605 46.8881L185.798 46.7779L181.829 39.832ZM183.429 38.744L188.495 44.9357L183.429 38.744ZM188.101 39.256L181.926 44.3417L182.002 44.434L182.08 44.524L188.101 39.256ZM187.205 44.76L191.855 51.2699L191.931 51.2158L192.005 51.16L187.205 44.76ZM182.469 46.872L184.53 54.6019L184.588 54.5866L184.645 54.5705L182.469 46.872ZM167.429 45.336L163.126 52.0805L163.168 52.1071L163.21 52.1331L167.429 45.336ZM161.669 38.936L154.491 42.4681L154.513 42.5136L154.536 42.5589L161.669 38.936ZM161.797 20.696L154.757 16.8965L154.746 16.9168L154.735 16.9372L161.797 20.696ZM167.749 14.424L171.831 21.3044L171.848 21.2942L171.865 21.2839L167.749 14.424ZM176.517 20.12C178.418 20.12 179.757 20.3236 180.655 20.5802L185.051 5.1958C182.365 4.42841 179.48 4.12 176.517 4.12V20.12ZM180.703 20.5936C181.198 20.7319 181.486 20.8579 181.621 20.9278C181.753 20.9957 181.695 20.9862 181.547 20.8451L192.607 9.28287C190.369 7.14233 187.624 5.91378 185.003 5.18243L180.703 20.5936ZM181.809 21.0846C181.6 20.9018 181.262 20.5356 180.99 19.9584C180.713 19.3688 180.613 18.7881 180.613 18.328H196.613C196.613 14.5812 194.981 11.35 192.345 9.04339L181.809 21.0846ZM180.613 18.328C180.613 17.9405 180.673 17.5439 180.792 17.1669C180.91 16.7949 181.062 16.512 181.189 16.3224L194.501 25.1976C195.815 23.2278 196.613 20.8905 196.613 18.328H180.613ZM181.309 16.1465C181.777 15.4846 182.479 14.8299 183.406 14.3799C184.303 13.9442 185.104 13.848 185.605 13.848V29.848C188.867 29.848 192.195 28.4703 194.381 25.3735L181.309 16.1465ZM185.605 13.848C185.591 13.848 185.674 13.8467 185.833 13.8704C185.993 13.8939 186.265 13.9477 186.611 14.0737L181.143 29.1103C182.745 29.6929 184.309 29.848 185.605 29.848V13.848ZM187.455 14.4366C187.606 14.5122 187.796 14.6307 187.993 14.8034L177.457 26.8446C178.337 27.6146 179.295 28.2451 180.299 28.7474L187.455 14.4366ZM187.993 14.8034C187.141 14.0577 186.235 13.457 185.34 12.9688L177.678 27.0152C177.722 27.039 177.627 26.993 177.457 26.8446L187.993 14.8034ZM185.625 13.1321C183.817 12.0471 181.885 11.672 180.656 11.4964L178.394 27.3356C178.578 27.362 178.584 27.374 178.463 27.3388C178.396 27.3196 178.27 27.2798 178.099 27.2094C177.93 27.1398 177.684 27.0266 177.393 26.8519L185.625 13.1321ZM181.094 11.5714C180.141 11.3807 178.859 11.16 177.605 11.16V27.16C177.453 27.16 177.355 27.1528 177.327 27.1505C177.295 27.148 177.3 27.1474 177.348 27.1538C177.449 27.1674 177.645 27.1984 177.956 27.2606L181.094 11.5714ZM177.605 11.16C174.266 11.16 170.897 11.8891 167.865 13.7417L176.209 27.3943C176.249 27.3696 176.592 27.16 177.605 27.16V11.16ZM167.78 13.7949C165.01 15.5356 162.872 17.9367 161.426 20.8303L175.736 27.9857C175.911 27.6366 176.077 27.4777 176.294 27.3411L167.78 13.7949ZM161.464 20.7536C159.978 23.6479 159.365 26.776 159.365 29.912H175.365C175.365 28.8666 175.562 28.3254 175.698 28.0624L161.464 20.7536ZM159.365 29.912C159.365 33.0395 159.991 36.1248 161.426 38.9937L175.736 31.8383C175.55 31.4645 175.365 30.8805 175.365 29.912H159.365ZM161.543 39.2201C163.01 41.9328 165.069 44.2117 167.691 45.9086L176.383 32.4754C176.104 32.295 175.859 32.0565 175.619 31.6119L161.543 39.2201ZM167.78 45.9651C170.661 47.776 173.869 48.6 177.157 48.6V32.6C176.605 32.6 176.4 32.4853 176.294 32.4189L167.78 45.9651ZM177.157 48.6C178.515 48.6 179.896 48.5206 181.224 48.2991L178.594 32.5168C178.386 32.5514 177.932 32.6 177.157 32.6V48.6ZM181.224 48.2991C182.516 48.0838 183.977 47.7023 185.407 46.9874L178.251 32.6766C178.468 32.5684 178.617 32.5201 178.666 32.5054C178.716 32.4903 178.698 32.4994 178.594 32.5168L181.224 48.2991ZM185.798 46.7779C186.731 46.2449 187.639 45.6357 188.495 44.9357L178.363 32.5523C178.28 32.6203 178.122 32.7364 177.86 32.8861L185.798 46.7779ZM188.495 44.9357C187.702 45.584 186.929 45.8897 186.414 46.0301C185.917 46.1657 185.591 46.168 185.541 46.168V30.168C183.716 30.168 180.861 30.5089 178.363 32.5523L188.495 44.9357ZM185.541 46.168C185.228 46.168 184.621 46.116 183.884 45.8026C183.11 45.4739 182.433 44.958 181.926 44.3417L194.276 34.1703C191.879 31.2588 188.561 30.168 185.541 30.168V46.168ZM182.08 44.524C181.708 44.0987 181.412 43.5922 181.222 43.0508C181.038 42.5235 180.997 42.086 180.997 41.816H196.997C196.997 39.1212 196.16 36.3181 194.122 33.988L182.08 44.524ZM180.997 41.816C180.997 40.769 181.312 39.8549 181.715 39.1924C181.901 38.8883 182.079 38.6768 182.202 38.5482C182.324 38.4208 182.403 38.3618 182.405 38.36L192.005 51.16C194.356 49.3968 196.997 46.3087 196.997 41.816H180.997ZM182.555 38.2501C182.34 38.4038 181.688 38.7793 180.293 39.1735L184.645 54.5705C187.175 53.8554 189.681 52.8229 191.855 51.2699L182.555 38.2501ZM180.408 39.1421C179.245 39.4521 177.856 39.64 176.197 39.64V55.64C179.06 55.64 181.853 55.3159 184.53 54.6019L180.408 39.1421ZM176.197 39.64C174.078 39.64 172.667 39.1715 171.648 38.5389L163.21 52.1331C167.14 54.5725 171.574 55.64 176.197 55.64V39.64ZM171.732 38.5915C170.496 37.8033 169.538 36.7626 168.802 35.3131L154.536 42.5589C156.531 46.4854 159.413 49.7113 163.126 52.0805L171.732 38.5915ZM168.847 35.4039C168.123 33.9318 167.685 32.1526 167.685 29.912H151.685C151.685 34.3274 152.57 38.5642 154.491 42.4681L168.847 35.4039ZM167.685 29.912C167.685 27.504 168.163 25.7631 168.859 24.4548L154.735 16.9372C152.615 20.9196 151.685 25.3226 151.685 29.912H167.685ZM168.837 24.4955C169.631 23.0255 170.616 22.0249 171.831 21.3044L163.667 7.54356C159.847 9.80975 156.865 12.9905 154.757 16.8965L168.837 24.4955ZM171.865 21.2839C173.059 20.5676 174.532 20.12 176.517 20.12V4.12C171.932 4.12 167.559 5.20844 163.633 7.56406L171.865 21.2839Z" fill="#0F172A"/>
</svg>
